# Blender v3.2.0 OBJ File: 'cube.blend'
# www.blender.org
o Cube
v 1.010000 0.950000 -1.000000
v 1.010000 1.000000 -0.950000
v 1.060000 0.950000 -0.950000
v 1.010000 0.969134 -0.996194
v 1.010000 0.985355 -0.985355
v 1.029134 0.950000 -0.996194
v 1.029351 0.969351 -0.991846
v 1.028296 0.982903 -0.982903
v 1.038867 0.978868 -0.978868
v 1.029134 0.996194 -0.950000
v 1.045355 0.985355 -0.950000
v 1.010000 0.996194 -0.969134
v 1.029351 0.991846 -0.969351
v 1.042903 0.982903 -0.968296
v 1.056194 0.950000 -0.969134
v 1.045355 0.950000 -0.985355
v 1.056194 0.969134 -0.950000
v 1.051846 0.969351 -0.969351
v 1.042903 0.968296 -0.982903
v 1.010000 0.000000 -0.950000
v 1.010000 0.050000 -1.000000
v 1.060000 0.050000 -0.950000
v 1.010000 0.003806 -0.969134
v 1.010000 0.014645 -0.985355
v 1.029134 0.003806 -0.950000
v 1.029351 0.008154 -0.969351
v 1.028296 0.017097 -0.982903
v 1.038867 0.021132 -0.978868
v 1.029134 0.050000 -0.996194
v 1.045355 0.050000 -0.985355
v 1.010000 0.030866 -0.996194
v 1.029351 0.030649 -0.991846
v 1.042903 0.031704 -0.982903
v 1.056194 0.030866 -0.950000
v 1.045355 0.014645 -0.950000
v 1.056194 0.050000 -0.969134
v 1.051846 0.030649 -0.969351
v 1.042903 0.017097 -0.968296
v 1.060000 0.950000 -0.050000
v 1.010000 1.000000 -0.050000
v 1.010000 0.950000 0.000000
v 1.056194 0.969134 -0.050000
v 1.045355 0.985355 -0.050000
v 1.056194 0.950000 -0.030866
v 1.051846 0.969351 -0.030649
v 1.042903 0.982903 -0.031704
v 1.038867 0.978868 -0.021132
v 1.010000 0.996194 -0.030866
v 1.010000 0.985355 -0.014645
v 1.029134 0.996194 -0.050000
v 1.029351 0.991846 -0.030649
v 1.028296 0.982903 -0.017097
v 1.029134 0.950000 -0.003806
v 1.045355 0.950000 -0.014645
v 1.010000 0.969134 -0.003806
v 1.029351 0.969351 -0.008154
v 1.042903 0.968296 -0.017097
v 1.060000 0.050000 -0.050000
v 1.010000 0.050000 0.000000
v 1.010000 0.000000 -0.050000
v 1.056194 0.050000 -0.030866
v 1.045355 0.050000 -0.014645
v 1.056194 0.030866 -0.050000
v 1.051846 0.030649 -0.030649
v 1.042903 0.031704 -0.017097
v 1.038867 0.021132 -0.021132
v 1.010000 0.030866 -0.003806
v 1.010000 0.014645 -0.014645
v 1.029134 0.050000 -0.003806
v 1.029351 0.030649 -0.008154
v 1.028296 0.017097 -0.017097
v 1.029134 0.003806 -0.050000
v 1.045355 0.014645 -0.050000
v 1.010000 0.003806 -0.030866
v 1.029351 0.008154 -0.030649
v 1.042903 0.017097 -0.031704
v 0.110000 0.950000 -1.000000
v 0.060000 0.950000 -0.950000
v 0.110000 1.000000 -0.950000
v 0.090866 0.950000 -0.996194
v 0.074645 0.950000 -0.985355
v 0.110000 0.969134 -0.996194
v 0.090649 0.969351 -0.991846
v 0.077097 0.968296 -0.982903
v 0.081133 0.978868 -0.978868
v 0.063806 0.969134 -0.950000
v 0.074645 0.985355 -0.950000
v 0.063806 0.950000 -0.969134
v 0.068154 0.969351 -0.969351
v 0.077097 0.982903 -0.968296
v 0.110000 0.996194 -0.969134
v 0.110000 0.985355 -0.985355
v 0.090866 0.996194 -0.950000
v 0.090649 0.991846 -0.969351
v 0.091704 0.982903 -0.982903
v 0.060000 0.050000 -0.950000
v 0.110000 0.050000 -1.000000
v 0.110000 0.000000 -0.950000
v 0.063806 0.050000 -0.969134
v 0.074645 0.050000 -0.985355
v 0.063806 0.030866 -0.950000
v 0.068154 0.030649 -0.969351
v 0.077097 0.031704 -0.982903
v 0.081133 0.021132 -0.978868
v 0.110000 0.030866 -0.996194
v 0.110000 0.014645 -0.985355
v 0.090866 0.050000 -0.996194
v 0.090649 0.030649 -0.991846
v 0.091704 0.017097 -0.982903
v 0.090866 0.003806 -0.950000
v 0.074645 0.014645 -0.950000
v 0.110000 0.003806 -0.969134
v 0.090649 0.008154 -0.969351
v 0.077097 0.017097 -0.968296
v 0.060000 0.950000 -0.050000
v 0.110000 0.950000 0.000000
v 0.110000 1.000000 -0.050000
v 0.063806 0.950000 -0.030866
v 0.074645 0.950000 -0.014645
v 0.063806 0.969134 -0.050000
v 0.068154 0.969351 -0.030649
v 0.077097 0.968296 -0.017097
v 0.081133 0.978868 -0.021132
v 0.110000 0.969134 -0.003806
v 0.110000 0.985355 -0.014645
v 0.090866 0.950000 -0.003806
v 0.090649 0.969351 -0.008154
v 0.091704 0.982903 -0.017097
v 0.090866 0.996194 -0.050000
v 0.074645 0.985355 -0.050000
v 0.110000 0.996194 -0.030866
v 0.090649 0.991846 -0.030649
v 0.077097 0.982903 -0.031704
v 0.110000 0.000000 -0.050000
v 0.110000 0.050000 0.000000
v 0.060000 0.050000 -0.050000
v 0.110000 0.003806 -0.030866
v 0.110000 0.014645 -0.014645
v 0.090866 0.003806 -0.050000
v 0.090649 0.008154 -0.030649
v 0.091704 0.017097 -0.017097
v 0.081133 0.021132 -0.021132
v 0.090866 0.050000 -0.003806
v 0.074645 0.050000 -0.014645
v 0.110000 0.030866 -0.003806
v 0.090649 0.030649 -0.008154
v 0.077097 0.031704 -0.017097
v 0.063806 0.030866 -0.050000
v 0.074645 0.014645 -0.050000
v 0.063806 0.050000 -0.030866
v 0.068154 0.030649 -0.030649
v 0.077097 0.017097 -0.031704
vt 0.362500 0.512500
vt 0.137500 0.737500
vt 0.137500 0.512500
vt 0.612500 0.012500
vt 0.387500 0.237500
vt 0.387500 0.012500
vt 0.612500 0.762500
vt 0.387500 0.987500
vt 0.387500 0.762500
vt 0.862500 0.512500
vt 0.637500 0.737500
vt 0.637500 0.512500
vt 0.612500 0.512500
vt 0.387500 0.737500
vt 0.387500 0.512500
vt 0.617284 0.487500
vt 0.612500 0.492284
vt 0.612500 0.487500
vt 0.625000 0.487500
vt 0.617338 0.492338
vt 0.612500 0.500000
vt 0.623239 0.500000
vt 0.617074 0.500000
vt 0.632716 0.512500
vt 0.637500 0.507716
vt 0.625000 0.512500
vt 0.632662 0.507662
vt 0.637500 0.500000
vt 0.632926 0.500000
vt 0.612500 0.507717
vt 0.617284 0.512500
vt 0.617338 0.507662
vt 0.625000 0.507926
vt 0.362500 0.507717
vt 0.367284 0.512500
vt 0.362500 0.500000
vt 0.367338 0.507662
vt 0.375000 0.512500
vt 0.375000 0.501761
vt 0.375000 0.507926
vt 0.387500 0.492284
vt 0.382716 0.487500
vt 0.387500 0.487500
vt 0.387500 0.500000
vt 0.382662 0.492338
vt 0.375000 0.487500
vt 0.375000 0.492074
vt 0.382716 0.512500
vt 0.387500 0.507716
vt 0.382662 0.507662
vt 0.382926 0.500000
vt 0.617284 0.737500
vt 0.612500 0.742284
vt 0.612500 0.737500
vt 0.625000 0.737500
vt 0.617338 0.742338
vt 0.612500 0.750000
vt 0.625000 0.748239
vt 0.617074 0.750000
vt 0.637500 0.742284
vt 0.632716 0.737500
vt 0.637500 0.750000
vt 0.632662 0.742338
vt 0.625000 0.742074
vt 0.612500 0.757716
vt 0.617284 0.762500
vt 0.617338 0.757662
vt 0.625000 0.762500
vt 0.625000 0.757926
vt 0.387500 0.742284
vt 0.382716 0.737500
vt 0.387500 0.750000
vt 0.382662 0.742338
vt 0.375000 0.737500
vt 0.376761 0.750000
vt 0.375000 0.742074
vt 0.382716 0.762500
vt 0.387500 0.757716
vt 0.375000 0.762500
vt 0.382662 0.757662
vt 0.382926 0.750000
vt 0.367284 0.737500
vt 0.362500 0.742284
vt 0.362500 0.737500
vt 0.367338 0.742338
vt 0.362500 0.750000
vt 0.367074 0.750000
vt 0.612500 0.257716
vt 0.617284 0.262500
vt 0.612500 0.262500
vt 0.612500 0.250000
vt 0.617338 0.257662
vt 0.625000 0.262500
vt 0.619717 0.250000
vt 0.625000 0.257926
vt 0.617284 0.237500
vt 0.612500 0.242284
vt 0.612500 0.237500
vt 0.625000 0.237500
vt 0.617338 0.242338
vt 0.625000 0.244717
vt 0.617074 0.250000
vt 0.862500 0.507717
vt 0.867284 0.512500
vt 0.862500 0.500000
vt 0.867338 0.507662
vt 0.875000 0.512500
vt 0.869717 0.500000
vt 0.875000 0.507926
vt 0.387500 0.242284
vt 0.382716 0.237500
vt 0.387500 0.250000
vt 0.382662 0.242338
vt 0.375000 0.237500
vt 0.380283 0.250000
vt 0.375000 0.242074
vt 0.382716 0.262500
vt 0.387500 0.257716
vt 0.387500 0.262500
vt 0.375000 0.262500
vt 0.382662 0.257662
vt 0.375000 0.255283
vt 0.382926 0.250000
vt 0.132716 0.512500
vt 0.137500 0.507716
vt 0.125000 0.512500
vt 0.132662 0.507662
vt 0.137500 0.500000
vt 0.125000 0.505283
vt 0.132926 0.500000
vt 0.612500 0.007716
vt 0.617284 0.012500
vt 0.612500 0.000000
vt 0.617338 0.007662
vt 0.625000 0.012500
vt 0.619717 0.000000
vt 0.625000 0.007926
vt 0.617284 0.987500
vt 0.612500 0.992284
vt 0.612500 0.987500
vt 0.625000 0.987500
vt 0.617338 0.992338
vt 0.612500 1.000000
vt 0.625000 0.994717
vt 0.617074 1.000000
vt 0.867284 0.737500
vt 0.862500 0.742284
vt 0.862500 0.737500
vt 0.875000 0.737500
vt 0.867338 0.742338
vt 0.862500 0.750000
vt 0.875000 0.744717
vt 0.867074 0.750000
vt 0.137500 0.742284
vt 0.132716 0.737500
vt 0.137500 0.750000
vt 0.132662 0.742338
vt 0.125000 0.737500
vt 0.130283 0.750000
vt 0.125000 0.742074
vt 0.387500 0.992284
vt 0.382716 0.987500
vt 0.387500 1.000000
vt 0.382662 0.992338
vt 0.375000 0.987500
vt 0.380283 1.000000
vt 0.375000 0.992074
vt 0.382716 0.012500
vt 0.387500 0.007716
vt 0.375000 0.012500
vt 0.382662 0.007662
vt 0.387500 0.000000
vt 0.375000 0.005283
vt 0.382926 0.000000
vt 0.625000 0.492074
vt 0.367074 0.500000
vt 0.632926 0.750000
vt 0.375000 0.757926
vt 0.625000 0.242074
vt 0.867074 0.500000
vt 0.375000 0.257926
vt 0.125000 0.507926
vt 0.617074 0.000000
vt 0.625000 0.992074
vt 0.875000 0.742074
vt 0.132926 0.750000
vt 0.382926 1.000000
vt 0.375000 0.007926
vn 0.0000 -1.0000 0.0000
vn -1.0000 0.0000 0.0000
vn 0.0000 0.0000 1.0000
vn 0.0000 1.0000 0.0000
vn 1.0000 0.0000 0.0000
vn 0.1915 0.1915 -0.9626
vn 0.1777 0.5467 -0.8182
vn 0.5467 0.1777 -0.8182
vn 0.5114 0.4699 -0.7195
vn 0.1915 0.9626 -0.1915
vn 0.5467 0.8182 -0.1777
vn 0.1777 0.8182 -0.5467
vn 0.4699 0.7195 -0.5114
vn 0.9626 0.1915 -0.1915
vn 0.8182 0.1777 -0.5467
vn 0.8182 0.5467 -0.1777
vn 0.7195 0.5114 -0.4699
vn 0.1915 -0.9626 -0.1915
vn 0.1777 -0.8182 -0.5467
vn 0.5467 -0.8182 -0.1777
vn 0.5114 -0.7195 -0.4699
vn 0.1915 -0.1915 -0.9626
vn 0.5467 -0.1777 -0.8182
vn 0.1777 -0.5467 -0.8182
vn 0.4699 -0.5114 -0.7195
vn 0.9626 -0.1915 -0.1915
vn 0.8182 -0.5467 -0.1777
vn 0.8182 -0.1777 -0.5467
vn 0.7195 -0.4699 -0.5114
vn 0.9626 0.1915 0.1915
vn 0.8182 0.5467 0.1777
vn 0.8182 0.1777 0.5467
vn 0.7195 0.4699 0.5114
vn 0.1915 0.9626 0.1915
vn 0.1777 0.8182 0.5467
vn 0.5467 0.8182 0.1777
vn 0.5114 0.7195 0.4699
vn 0.1915 0.1915 0.9626
vn 0.5467 0.1777 0.8182
vn 0.1777 0.5467 0.8182
vn 0.4699 0.5114 0.7195
vn 0.9626 -0.1915 0.1915
vn 0.8182 -0.1777 0.5467
vn 0.8182 -0.5467 0.1777
vn 0.7195 -0.5114 0.4699
vn 0.1915 -0.1915 0.9626
vn 0.1777 -0.5467 0.8182
vn 0.5467 -0.1777 0.8182
vn 0.5114 -0.4699 0.7195
vn 0.1915 -0.9626 0.1915
vn 0.5467 -0.8182 0.1777
vn 0.1777 -0.8182 0.5467
vn 0.4699 -0.7195 0.5114
vn -0.1915 0.1915 -0.9626
vn -0.5467 0.1777 -0.8182
vn -0.1777 0.5467 -0.8182
vn -0.4699 0.5114 -0.7195
vn -0.9626 0.1915 -0.1915
vn -0.8182 0.5467 -0.1777
vn -0.8182 0.1777 -0.5467
vn -0.7195 0.4699 -0.5114
vn -0.1915 0.9626 -0.1915
vn -0.1777 0.8182 -0.5467
vn -0.5467 0.8182 -0.1777
vn -0.5114 0.7195 -0.4699
vn -0.9626 -0.1915 -0.1915
vn -0.8182 -0.1777 -0.5467
vn -0.8182 -0.5467 -0.1777
vn -0.7195 -0.5114 -0.4699
vn -0.1915 -0.1915 -0.9626
vn -0.1777 -0.5467 -0.8182
vn -0.5467 -0.1777 -0.8182
vn -0.5114 -0.4699 -0.7195
vn -0.1915 -0.9626 -0.1915
vn -0.5467 -0.8182 -0.1777
vn -0.1777 -0.8182 -0.5467
vn -0.4699 -0.7195 -0.5114
vn -0.9626 0.1915 0.1915
vn -0.8182 0.1777 0.5467
vn -0.8182 0.5467 0.1777
vn -0.7195 0.5114 0.4699
vn -0.1915 0.1915 0.9626
vn -0.1777 0.5467 0.8182
vn -0.5467 0.1777 0.8182
vn -0.5114 0.4699 0.7195
vn -0.1915 0.9626 0.1915
vn -0.5467 0.8182 0.1777
vn -0.1777 0.8182 0.5467
vn -0.4699 0.7195 0.5114
vn -0.1915 -0.9626 0.1915
vn -0.1777 -0.8182 0.5467
vn -0.5467 -0.8182 0.1777
vn -0.5114 -0.7195 0.4699
vn -0.1915 -0.1915 0.9626
vn -0.5467 -0.1777 0.8182
vn -0.1777 -0.5467 0.8182
vn -0.4699 -0.5114 0.7195
vn -0.9626 -0.1915 0.1915
vn -0.8182 -0.5467 0.1777
vn -0.8182 -0.1777 0.5467
vn -0.7195 -0.4699 0.5114
vn -0.1951 -0.9808 0.0000
vn -0.5556 -0.8315 0.0000
vn -0.8315 -0.5556 0.0000
vn -0.9808 -0.1951 0.0000
vn 0.0000 -0.9808 -0.1951
vn 0.0000 -0.8315 -0.5556
vn 0.0000 -0.5556 -0.8315
vn 0.0000 -0.1951 -0.9808
vn 0.9808 0.0000 -0.1951
vn 0.8315 0.0000 -0.5556
vn 0.5556 0.0000 -0.8315
vn 0.1951 0.0000 -0.9808
vn -0.1951 0.0000 0.9808
vn -0.5556 0.0000 0.8315
vn -0.8315 0.0000 0.5556
vn -0.9808 0.0000 0.1951
vn 0.1951 0.0000 0.9808
vn 0.5556 0.0000 0.8315
vn 0.8315 0.0000 0.5556
vn 0.9808 0.0000 0.1951
vn -0.1951 0.0000 -0.9808
vn -0.5556 0.0000 -0.8315
vn -0.8315 0.0000 -0.5556
vn -0.9808 0.0000 -0.1951
vn 0.0000 0.9808 0.1951
vn 0.0000 0.8315 0.5556
vn 0.0000 0.5556 0.8315
vn 0.0000 0.1951 0.9808
vn 0.1951 0.9808 0.0000
vn 0.5556 0.8315 0.0000
vn 0.8315 0.5556 0.0000
vn 0.9808 0.1951 0.0000
vn 0.0000 -0.9808 0.1951
vn 0.0000 -0.8315 0.5556
vn 0.0000 -0.5556 0.8315
vn 0.0000 -0.1951 0.9808
vn -0.1951 0.9808 0.0000
vn -0.5556 0.8315 0.0000
vn -0.8315 0.5556 0.0000
vn -0.9808 0.1951 0.0000
vn 0.0000 0.9808 -0.1951
vn 0.0000 0.8315 -0.5556
vn 0.0000 0.5556 -0.8315
vn 0.0000 0.1951 -0.9808
vn 0.1951 -0.9808 0.0000
vn 0.5556 -0.8315 0.0000
vn 0.8315 -0.5556 0.0000
vn 0.9808 -0.1951 0.0000
vn 0.0000 0.0000 -1.0000
vn 0.2120 0.2120 -0.9540
vn 0.1830 0.5513 -0.8140
vn 0.5513 0.1830 -0.8140
vn 0.4699 0.5113 -0.7195
vn 0.2120 0.9540 -0.2120
vn 0.5513 0.8140 -0.1830
vn 0.1830 0.8140 -0.5513
vn 0.5114 0.7195 -0.4699
vn 0.9540 0.2120 -0.2120
vn 0.8140 0.1830 -0.5513
vn 0.8140 0.5513 -0.1830
vn 0.7195 0.4699 -0.5114
vn 0.2120 -0.9540 -0.2120
vn 0.1830 -0.8140 -0.5513
vn 0.5513 -0.8140 -0.1830
vn 0.4699 -0.7195 -0.5114
vn 0.2120 -0.2120 -0.9540
vn 0.5513 -0.1830 -0.8140
vn 0.1830 -0.5513 -0.8140
vn 0.5114 -0.4699 -0.7195
vn 0.9540 -0.2120 -0.2120
vn 0.8140 -0.5513 -0.1830
vn 0.8140 -0.1830 -0.5513
vn 0.7195 -0.5114 -0.4699
vn 0.9540 0.2120 0.2120
vn 0.8140 0.5513 0.1830
vn 0.8140 0.1830 0.5513
vn 0.7195 0.5114 0.4699
vn 0.2120 0.9540 0.2120
vn 0.1830 0.8140 0.5513
vn 0.5513 0.8140 0.1830
vn 0.4699 0.7195 0.5114
vn 0.2120 0.2120 0.9540
vn 0.5513 0.1830 0.8140
vn 0.1830 0.5513 0.8140
vn 0.5114 0.4699 0.7195
vn 0.9540 -0.2120 0.2120
vn 0.8140 -0.1830 0.5513
vn 0.8140 -0.5513 0.1830
vn 0.7195 -0.4699 0.5114
vn 0.2120 -0.2120 0.9540
vn 0.1830 -0.5513 0.8140
vn 0.5513 -0.1830 0.8140
vn 0.4699 -0.5114 0.7195
vn 0.2120 -0.9540 0.2120
vn 0.5513 -0.8140 0.1830
vn 0.1830 -0.8140 0.5513
vn 0.5114 -0.7195 0.4699
vn -0.2120 0.2120 -0.9540
vn -0.5513 0.1830 -0.8140
vn -0.1830 0.5513 -0.8140
vn -0.5114 0.4699 -0.7195
vn -0.9540 0.2120 -0.2120
vn -0.8140 0.5513 -0.1830
vn -0.8140 0.1830 -0.5513
vn -0.7195 0.5114 -0.4699
vn -0.2120 0.9540 -0.2120
vn -0.1830 0.8140 -0.5513
vn -0.5513 0.8140 -0.1830
vn -0.4699 0.7195 -0.5114
vn -0.9540 -0.2120 -0.2120
vn -0.8140 -0.1830 -0.5513
vn -0.8140 -0.5513 -0.1830
vn -0.7195 -0.4699 -0.5114
vn -0.2120 -0.2120 -0.9540
vn -0.1830 -0.5513 -0.8140
vn -0.5513 -0.1830 -0.8140
vn -0.4699 -0.5114 -0.7195
vn -0.2120 -0.9540 -0.2120
vn -0.5513 -0.8140 -0.1830
vn -0.1830 -0.8140 -0.5513
vn -0.5114 -0.7195 -0.4699
vn -0.9540 0.2120 0.2120
vn -0.8140 0.1830 0.5513
vn -0.8140 0.5513 0.1830
vn -0.7195 0.4699 0.5114
vn -0.2120 0.2120 0.9540
vn -0.1830 0.5513 0.8140
vn -0.5513 0.1830 0.8140
vn -0.4699 0.5114 0.7195
vn -0.2120 0.9540 0.2120
vn -0.5513 0.8140 0.1830
vn -0.1830 0.8140 0.5513
vn -0.5114 0.7195 0.4699
vn -0.2120 -0.9540 0.2120
vn -0.1830 -0.8140 0.5513
vn -0.5513 -0.8140 0.1830
vn -0.4699 -0.7195 0.5114
vn -0.2120 -0.2120 0.9540
vn -0.5513 -0.1830 0.8140
vn -0.1830 -0.5513 0.8140
vn -0.5114 -0.4699 0.7195
vn -0.9540 -0.2120 0.2120
vn -0.8140 -0.5513 0.1830
vn -0.8140 -0.1830 0.5513
vn -0.7195 -0.5114 0.4699
s off
f 20/1/1 134/2/1 98/3/1
f 115/4/2 96/5/2 136/6/2
f 41/7/3 135/8/3 59/9/3
f 79/10/4 40/11/4 2/12/4
f 3/13/5 58/14/5 22/15/5
f 4/16/6 6/17/6 1/18/6
f 5/19/7 7/20/7 4/16/7
f 7/20/8 16/21/8 6/17/8
f 7/20/9 9/22/9 19/23/9
f 10/24/10 12/25/10 2/12/10
f 11/26/11 13/27/11 10/24/11
f 13/27/12 5/28/12 12/25/12
f 13/27/13 9/22/13 8/29/13
f 15/30/14 17/31/14 3/13/14
f 16/21/15 18/32/15 15/30/15
f 18/32/16 11/26/16 17/31/16
f 18/32/17 9/22/17 14/33/17
f 23/34/18 25/35/18 20/1/18
f 24/36/19 26/37/19 23/34/19
f 26/37/20 35/38/20 25/35/20
f 26/37/21 28/39/21 38/40/21
f 29/41/22 31/42/22 21/43/22
f 30/44/23 32/45/23 29/41/23
f 32/45/24 24/46/24 31/42/24
f 32/45/25 28/39/25 27/47/25
f 34/48/26 36/49/26 22/15/26
f 35/38/27 37/50/27 34/48/27
f 37/50/28 30/44/28 36/49/28
f 37/50/29 28/39/29 33/51/29
f 42/52/30 44/53/30 39/54/30
f 43/55/31 45/56/31 42/52/31
f 45/56/32 54/57/32 44/53/32
f 45/56/33 47/58/33 57/59/33
f 48/60/34 50/61/34 40/11/34
f 49/62/35 51/63/35 48/60/35
f 51/63/36 43/55/36 50/61/36
f 51/63/37 47/58/37 46/64/37
f 53/65/38 55/66/38 41/7/38
f 54/57/39 56/67/39 53/65/39
f 56/67/40 49/68/40 55/66/40
f 56/67/41 47/58/41 52/69/41
f 61/70/42 63/71/42 58/14/42
f 62/72/43 64/73/43 61/70/43
f 64/73/44 73/74/44 63/71/44
f 64/73/45 66/75/45 76/76/45
f 67/77/46 69/78/46 59/9/46
f 68/79/47 70/80/47 67/77/47
f 70/80/48 62/72/48 69/78/48
f 70/80/49 66/75/49 65/81/49
f 72/82/50 74/83/50 60/84/50
f 73/74/51 75/85/51 72/82/51
f 75/85/52 68/86/52 74/83/52
f 75/85/53 66/75/53 71/87/53
f 80/88/54 82/89/54 77/90/54
f 81/91/55 83/92/55 80/88/55
f 83/92/56 92/93/56 82/89/56
f 83/92/57 85/94/57 95/95/57
f 86/96/58 88/97/58 78/98/58
f 87/99/59 89/100/59 86/96/59
f 89/100/60 81/91/60 88/97/60
f 89/100/61 85/101/61 84/102/61
f 91/103/62 93/104/62 79/10/62
f 92/105/63 94/106/63 91/103/63
f 94/106/64 87/107/64 93/104/64
f 94/106/65 85/108/65 90/109/65
f 99/110/66 101/111/66 96/5/66
f 100/112/67 102/113/67 99/110/67
f 102/113/68 111/114/68 101/111/68
f 102/113/69 104/115/69 114/116/69
f 105/117/70 107/118/70 97/119/70
f 106/120/71 108/121/71 105/117/71
f 108/121/72 100/112/72 107/118/72
f 108/121/73 104/122/73 103/123/73
f 110/124/74 112/125/74 98/3/74
f 111/126/75 113/127/75 110/124/75
f 113/127/76 106/128/76 112/125/76
f 113/127/77 104/129/77 109/130/77
f 118/131/78 120/132/78 115/4/78
f 119/133/79 121/134/79 118/131/79
f 121/134/80 130/135/80 120/132/80
f 121/134/81 123/136/81 133/137/81
f 124/138/82 126/139/82 116/140/82
f 125/141/83 127/142/83 124/138/83
f 127/142/84 119/143/84 126/139/84
f 127/142/85 123/144/85 122/145/85
f 129/146/86 131/147/86 117/148/86
f 130/149/87 132/150/87 129/146/87
f 132/150/88 125/151/88 131/147/88
f 132/150/89 123/152/89 128/153/89
f 137/154/90 139/155/90 134/2/90
f 138/156/91 140/157/91 137/154/91
f 140/157/92 149/158/92 139/155/92
f 140/157/93 142/159/93 152/160/93
f 143/161/94 145/162/94 135/8/94
f 144/163/95 146/164/95 143/161/95
f 146/164/96 138/165/96 145/162/96
f 146/164/97 142/166/97 141/167/97
f 148/168/98 150/169/98 136/6/98
f 149/170/99 151/171/99 148/168/99
f 151/171/100 144/172/100 150/169/100
f 151/171/101 142/173/101 147/174/101
f 134/2/102 110/124/102 98/3/102
f 139/155/103 111/126/103 110/124/103
f 149/170/104 101/111/104 111/114/104
f 148/168/105 96/5/105 101/111/105
f 98/3/106 23/34/106 20/1/106
f 112/125/107 24/36/107 23/34/107
f 106/120/108 31/42/108 24/46/108
f 105/117/109 21/43/109 31/42/109
f 22/15/110 15/30/110 3/13/110
f 36/49/111 16/21/111 15/30/111
f 30/44/112 6/17/112 16/21/112
f 29/41/113 1/18/113 6/17/113
f 116/140/114 143/161/114 135/8/114
f 126/139/115 144/163/115 143/161/115
f 119/133/116 150/169/116 144/172/116
f 118/131/117 136/6/117 150/169/117
f 59/9/118 53/65/118 41/7/118
f 69/78/119 54/57/119 53/65/119
f 62/72/120 44/53/120 54/57/120
f 61/70/121 39/54/121 44/53/121
f 97/119/122 80/88/122 77/90/122
f 107/118/123 81/91/123 80/88/123
f 100/112/124 88/97/124 81/91/124
f 99/110/125 78/98/125 88/97/125
f 117/148/126 48/60/126 40/11/126
f 131/147/127 49/62/127 48/60/127
f 125/141/128 55/66/128 49/68/128
f 124/138/129 41/7/129 55/66/129
f 40/11/130 10/24/130 2/12/130
f 50/61/131 11/26/131 10/24/131
f 43/55/132 17/31/132 11/26/132
f 42/52/133 3/13/133 17/31/133
f 60/84/134 137/154/134 134/2/134
f 74/83/135 138/156/135 137/154/135
f 68/79/136 145/162/136 138/165/136
f 67/77/137 135/8/137 145/162/137
f 79/10/138 129/146/138 117/148/138
f 93/104/139 130/149/139 129/146/139
f 87/99/140 120/132/140 130/135/140
f 86/96/141 115/4/141 120/132/141
f 2/12/142 91/103/142 79/10/142
f 12/25/143 92/105/143 91/103/143
f 5/19/144 82/89/144 92/93/144
f 4/16/145 77/90/145 82/89/145
f 20/1/146 72/82/146 60/84/146
f 25/35/147 73/74/147 72/82/147
f 35/38/148 63/71/148 73/74/148
f 34/48/149 58/14/149 63/71/149
f 77/90/150 21/43/150 97/119/150
f 20/1/1 60/84/1 134/2/1
f 115/4/2 78/98/2 96/5/2
f 41/7/3 116/140/3 135/8/3
f 79/10/4 117/148/4 40/11/4
f 3/13/5 39/54/5 58/14/5
f 4/16/151 7/20/151 6/17/151
f 5/19/152 8/175/152 7/20/152
f 7/20/153 19/23/153 16/21/153
f 7/20/154 8/175/154 9/22/154
f 10/24/155 13/27/155 12/25/155
f 11/26/156 14/33/156 13/27/156
f 13/27/157 8/29/157 5/28/157
f 13/27/158 14/33/158 9/22/158
f 15/30/159 18/32/159 17/31/159
f 16/21/160 19/23/160 18/32/160
f 18/32/161 14/33/161 11/26/161
f 18/32/162 19/23/162 9/22/162
f 23/34/163 26/37/163 25/35/163
f 24/36/164 27/176/164 26/37/164
f 26/37/165 38/40/165 35/38/165
f 26/37/166 27/176/166 28/39/166
f 29/41/167 32/45/167 31/42/167
f 30/44/168 33/51/168 32/45/168
f 32/45/169 27/47/169 24/46/169
f 32/45/170 33/51/170 28/39/170
f 34/48/171 37/50/171 36/49/171
f 35/38/172 38/40/172 37/50/172
f 37/50/173 33/51/173 30/44/173
f 37/50/174 38/40/174 28/39/174
f 42/52/175 45/56/175 44/53/175
f 43/55/176 46/64/176 45/56/176
f 45/56/177 57/59/177 54/57/177
f 45/56/178 46/64/178 47/58/178
f 48/60/179 51/63/179 50/61/179
f 49/62/180 52/177/180 51/63/180
f 51/63/181 46/64/181 43/55/181
f 51/63/182 52/177/182 47/58/182
f 53/65/183 56/67/183 55/66/183
f 54/57/184 57/59/184 56/67/184
f 56/67/185 52/69/185 49/68/185
f 56/67/186 57/59/186 47/58/186
f 61/70/187 64/73/187 63/71/187
f 62/72/188 65/81/188 64/73/188
f 64/73/189 76/76/189 73/74/189
f 64/73/190 65/81/190 66/75/190
f 67/77/191 70/80/191 69/78/191
f 68/79/192 71/178/192 70/80/192
f 70/80/193 65/81/193 62/72/193
f 70/80/194 71/178/194 66/75/194
f 72/82/195 75/85/195 74/83/195
f 73/74/196 76/76/196 75/85/196
f 75/85/197 71/87/197 68/86/197
f 75/85/198 76/76/198 66/75/198
f 80/88/199 83/92/199 82/89/199
f 81/91/200 84/102/200 83/92/200
f 83/92/201 95/95/201 92/93/201
f 83/92/202 84/102/202 85/94/202
f 86/96/203 89/100/203 88/97/203
f 87/99/204 90/179/204 89/100/204
f 89/100/205 84/102/205 81/91/205
f 89/100/206 90/179/206 85/101/206
f 91/103/207 94/106/207 93/104/207
f 92/105/208 95/180/208 94/106/208
f 94/106/209 90/109/209 87/107/209
f 94/106/210 95/180/210 85/108/210
f 99/110/211 102/113/211 101/111/211
f 100/112/212 103/123/212 102/113/212
f 102/113/213 114/116/213 111/114/213
f 102/113/214 103/123/214 104/115/214
f 105/117/215 108/121/215 107/118/215
f 106/120/216 109/181/216 108/121/216
f 108/121/217 103/123/217 100/112/217
f 108/121/218 109/181/218 104/122/218
f 110/124/219 113/127/219 112/125/219
f 111/126/220 114/182/220 113/127/220
f 113/127/221 109/130/221 106/128/221
f 113/127/222 114/182/222 104/129/222
f 118/131/223 121/134/223 120/132/223
f 119/133/224 122/183/224 121/134/224
f 121/134/225 133/137/225 130/135/225
f 121/134/226 122/183/226 123/136/226
f 124/138/227 127/142/227 126/139/227
f 125/141/228 128/184/228 127/142/228
f 127/142/229 122/145/229 119/143/229
f 127/142/230 128/184/230 123/144/230
f 129/146/231 132/150/231 131/147/231
f 130/149/232 133/185/232 132/150/232
f 132/150/233 128/153/233 125/151/233
f 132/150/234 133/185/234 123/152/234
f 137/154/235 140/157/235 139/155/235
f 138/156/236 141/186/236 140/157/236
f 140/157/237 152/160/237 149/158/237
f 140/157/238 141/186/238 142/159/238
f 143/161/239 146/164/239 145/162/239
f 144/163/240 147/187/240 146/164/240
f 146/164/241 141/167/241 138/165/241
f 146/164/242 147/187/242 142/166/242
f 148/168/243 151/171/243 150/169/243
f 149/170/244 152/188/244 151/171/244
f 151/171/245 147/174/245 144/172/245
f 151/171/246 152/188/246 142/173/246
f 134/2/102 139/155/102 110/124/102
f 139/155/103 149/158/103 111/126/103
f 149/170/104 148/168/104 101/111/104
f 148/168/105 136/6/105 96/5/105
f 98/3/106 112/125/106 23/34/106
f 112/125/107 106/128/107 24/36/107
f 106/120/108 105/117/108 31/42/108
f 105/117/109 97/119/109 21/43/109
f 22/15/110 36/49/110 15/30/110
f 36/49/111 30/44/111 16/21/111
f 30/44/112 29/41/112 6/17/112
f 29/41/113 21/43/113 1/18/113
f 116/140/114 126/139/114 143/161/114
f 126/139/115 119/143/115 144/163/115
f 119/133/116 118/131/116 150/169/116
f 118/131/117 115/4/117 136/6/117
f 59/9/118 69/78/118 53/65/118
f 69/78/119 62/72/119 54/57/119
f 62/72/120 61/70/120 44/53/120
f 61/70/121 58/14/121 39/54/121
f 97/119/122 107/118/122 80/88/122
f 107/118/123 100/112/123 81/91/123
f 100/112/124 99/110/124 88/97/124
f 99/110/125 96/5/125 78/98/125
f 117/148/126 131/147/126 48/60/126
f 131/147/127 125/151/127 49/62/127
f 125/141/128 124/138/128 55/66/128
f 124/138/129 116/140/129 41/7/129
f 40/11/130 50/61/130 10/24/130
f 50/61/131 43/55/131 11/26/131
f 43/55/132 42/52/132 17/31/132
f 42/52/133 39/54/133 3/13/133
f 60/84/134 74/83/134 137/154/134
f 74/83/135 68/86/135 138/156/135
f 68/79/136 67/77/136 145/162/136
f 67/77/137 59/9/137 135/8/137
f 79/10/138 93/104/138 129/146/138
f 93/104/139 87/107/139 130/149/139
f 87/99/140 86/96/140 120/132/140
f 86/96/141 78/98/141 115/4/141
f 2/12/142 12/25/142 91/103/142
f 12/25/143 5/28/143 92/105/143
f 5/19/144 4/16/144 82/89/144
f 4/16/145 1/18/145 77/90/145
f 20/1/146 25/35/146 72/82/146
f 25/35/147 35/38/147 73/74/147
f 35/38/148 34/48/148 63/71/148
f 34/48/149 22/15/149 58/14/149
f 77/90/150 1/18/150 21/43/150
