# Blender v3.2.0 OBJ File: 'cube.blend'
# www.blender.org
o Cube
v 0.975044 0.988482 0.023790
v 0.965223 0.963971 0.003568
v 0.963971 0.996432 0.034777
v 0.996944 0.964512 0.036703
v 0.984763 0.962379 0.015934
v 0.962379 0.015237 0.015934
v 0.964512 0.003056 0.036703
v 0.982925 0.031215 0.015721
v 0.963297 0.035488 0.003056
v 0.996432 0.036028 0.034777
v 0.984763 0.015934 0.037621
v 0.988482 0.975044 0.976210
v 0.996432 0.963971 0.965223
v 0.962379 0.984763 0.984066
v 0.964512 0.996944 0.963297
v 0.963297 0.964512 0.996944
v 0.984763 0.037621 0.984066
v 0.996944 0.035488 0.963297
v 0.975044 0.011518 0.976210
v 0.965223 0.036028 0.996432
v 0.963971 0.003568 0.965223
v 0.015934 0.962379 0.015237
v 0.036703 0.964512 0.003056
v 0.023790 0.988482 0.024956
v 0.003568 0.963971 0.034777
v 0.035488 0.996944 0.036703
v 0.015237 0.037621 0.015934
v 0.003056 0.035488 0.036703
v 0.017075 0.015721 0.031215
v 0.037621 0.015934 0.015237
v 0.034777 0.036028 0.003568
v 0.036028 0.003568 0.034777
v 0.015237 0.962379 0.984066
v 0.003056 0.964512 0.963297
v 0.031215 0.982925 0.984279
v 0.034777 0.963971 0.996432
v 0.036028 0.996432 0.965223
v 0.015934 0.984763 0.962379
v 0.037621 0.015237 0.984066
v 0.035488 0.003056 0.963297
v 0.017075 0.031215 0.984279
v 0.036703 0.035488 0.996944
v 0.003568 0.036028 0.965223
v 0.015237 0.015934 0.962379
vt 0.616139 0.491028
vt 0.628517 0.503530
vt 0.615548 0.500000
vt 0.384076 0.490960
vt 0.381011 0.500656
vt 0.375000 0.490548
vt 0.615924 0.759040
vt 0.621359 0.745875
vt 0.625000 0.759452
vt 0.383861 0.758972
vt 0.371757 0.746273
vt 0.384452 0.750000
vt 0.616139 0.241028
vt 0.625000 0.242021
vt 0.615548 0.250000
vt 0.133861 0.508972
vt 0.125000 0.507980
vt 0.134452 0.500000
vt 0.616139 0.991028
vt 0.625000 0.992021
vt 0.615548 1.000000
vt 0.384076 0.990960
vt 0.382979 1.000000
vt 0.375000 0.990548
vt 0.384076 0.240960
vt 0.615924 0.009040
vt 0.634076 0.740960
vt 0.865924 0.509040
vt 0.866139 0.741028
vt 0.384076 0.740960
vt 0.615924 0.509040
vt 0.616139 0.741028
vt 0.375000 0.509452
vt 0.365548 0.500000
vt 0.384452 0.250000
vt 0.375000 0.259452
vt 0.375000 0.255283
vt 0.383861 0.508972
vt 0.134076 0.740960
vt 0.365924 0.509040
vt 0.366139 0.741028
vt 0.634452 0.750000
vt 0.615924 0.259040
vt 0.621800 0.253727
vt 0.376968 0.243988
vt 0.625000 0.009452
vt 0.615548 0.000000
vt 0.619717 0.000000
vt 0.125000 0.740548
vt 0.134452 0.750000
vt 0.130283 0.750000
vt 0.875000 0.740548
vt 0.868989 0.748032
vt 0.383861 0.008972
vt 0.375000 0.009452
vt 0.381011 0.001968
vt 0.383861 0.258972
vt 0.633861 0.508972
vt 0.870081 0.503641
vt 0.624615 0.499628
vt 0.375656 0.756011
vn 0.5102 0.4164 -0.7525
vn 0.3866 -0.5073 -0.7702
vn 0.4152 0.5015 0.7590
vn 0.5102 -0.4164 0.7525
vn -0.7525 0.4164 -0.5102
vn -0.3922 -0.7625 -0.5145
vn -0.5145 0.3922 0.7625
vn -0.3866 -0.5073 0.7702
vn -1.0000 0.0006 -0.0006
vn -0.0006 0.0006 1.0000
vn -0.0006 1.0000 0.0006
vn 1.0000 0.0006 0.0006
vn 0.5221 -0.6782 -0.5171
vn 0.7589 0.4298 -0.4892
vn -0.5221 -0.5171 -0.6782
vn 0.7610 -0.5003 -0.4130
vn 0.0006 -1.0000 0.0006
vn 0.4298 0.7589 0.4892
vn 0.7589 -0.4298 0.4892
vn -0.4892 0.4298 -0.7589
vn -0.7685 -0.4083 -0.4927
vn -0.6782 0.5221 0.5171
vn -0.5221 -0.6782 0.5171
vn -0.5003 0.7610 0.4130
vn -0.5397 -0.8419 -0.0009
vn -0.7610 -0.5003 0.4130
vn -0.8647 -0.5022 0.0008
vn -0.0002 -0.8450 -0.5348
vn -0.0008 -0.5022 -0.8647
vn 0.8160 -0.0015 -0.5780
vn 0.5347 -0.0006 -0.8450
vn -0.5421 -0.0009 0.8403
vn -0.8626 0.0006 0.5059
vn 0.6346 0.0040 0.7728
vn 0.8626 -0.0006 0.5059
vn -0.5348 -0.0002 -0.8450
vn -0.8626 -0.0006 -0.5059
vn -0.0015 0.8160 0.5780
vn -0.0008 0.5366 0.8438
vn 0.5853 0.8108 0.0032
vn 0.7380 0.6748 0.0008
vn 0.0017 -0.8110 0.5851
vn 0.0008 -0.5366 0.8438
vn -0.5850 0.8110 -0.0017
vn -0.8438 0.5366 -0.0008
vn -0.0007 0.8098 -0.5867
vn 0.0008 0.6362 -0.7715
vn 0.5818 -0.8133 0.0022
vn 0.8647 -0.5022 -0.0008
vn 0.0006 0.0006 -1.0000
vn -1.0000 -0.0006 0.0006
vn 0.0006 -0.0006 1.0000
vn 0.0006 1.0000 -0.0006
vn 1.0000 -0.0006 -0.0006
vn 0.4865 -0.7309 -0.4786
vn -0.4949 -0.4877 -0.7192
vn -0.0006 -1.0000 -0.0006
vn -0.7309 0.4865 0.4786
vn -0.4865 -0.7309 0.4786
vn -0.5366 -0.8438 -0.0008
vn -0.8159 -0.5782 -0.0015
vn 0.0006 -0.8626 -0.5059
vn 0.0002 -0.5366 -0.8438
vn 0.8626 0.0006 -0.5059
vn 0.5421 -0.0009 -0.8403
vn -0.5347 -0.0006 0.8450
vn -0.8160 -0.0015 0.5780
vn 0.5347 0.0006 0.8450
vn 0.8110 0.0017 0.5851
vn -0.5059 0.0006 -0.8626
vn -0.8450 0.0002 -0.5348
vn 0.0006 0.8626 0.5059
vn -0.0009 0.5397 0.8419
vn 0.6748 0.7380 -0.0008
vn 0.8108 0.5853 -0.0032
vn -0.0006 -0.8626 0.5059
vn 0.0039 -0.6354 0.7721
vn -0.5022 0.8647 0.0008
vn -0.7721 0.6354 -0.0039
vn -0.0008 0.8117 -0.5840
vn -0.0009 0.6743 -0.7385
vn 0.5366 -0.8438 0.0008
vn 0.7394 -0.6732 0.0045
vn -0.0006 -0.0006 -1.0000
s off
f 2/1/1 1/2/1 5/3/1
f 9/4/2 8/5/2 6/6/2
f 16/7/3 12/8/3 14/9/3
f 20/10/4 19/11/4 17/12/4
f 25/13/5 24/14/5 22/15/5
f 32/16/6 29/17/6 30/18/6
f 36/19/7 35/20/7 33/21/7
f 42/22/8 41/23/8 39/24/8
f 28/25/9 34/26/9 25/13/9
f 42/22/10 16/7/10 36/19/10
f 15/27/11 26/28/11 37/29/11
f 18/30/12 4/31/12 13/32/12
f 11/33/13 6/34/13 8/5/13
f 4/31/14 5/3/14 1/2/14
f 27/35/15 30/36/15 29/37/15
f 10/38/16 11/33/16 8/5/16
f 40/39/17 7/40/17 21/41/17
f 15/27/18 14/42/18 12/8/18
f 18/30/19 17/12/19 19/11/19
f 23/43/20 22/15/20 24/44/20
f 28/25/21 27/35/21 29/45/21
f 38/46/22 33/47/22 35/48/22
f 44/49/23 39/50/23 41/51/23
f 37/29/24 38/52/24 35/53/24
f 32/16/25 44/49/25 29/17/25
f 43/54/26 44/55/26 41/56/26
f 28/25/27 44/55/27 43/54/27
f 6/34/28 32/16/28 30/18/28
f 9/4/29 30/36/29 31/57/29
f 5/3/30 10/38/30 8/5/30
f 5/3/31 9/4/31 2/1/31
f 42/22/32 33/21/32 41/23/32
f 43/54/33 33/47/33 34/26/33
f 16/7/34 17/12/34 12/8/34
f 13/32/35 17/12/35 18/30/35
f 22/15/36 31/57/36 27/35/36
f 25/13/37 27/35/37 28/25/37
f 14/42/38 37/29/38 35/53/38
f 14/9/39 36/19/39 16/7/39
f 3/58/40 12/8/40 1/2/40
f 1/2/41 13/32/41 4/31/41
f 39/50/42 21/41/42 19/11/42
f 39/24/43 20/10/43 42/22/43
f 38/52/44 26/28/44 24/59/44
f 38/46/45 25/13/45 34/26/45
f 24/59/46 3/58/46 1/2/46
f 23/43/47 1/60/47 2/1/47
f 21/41/48 11/33/48 19/11/48
f 18/30/49 11/33/49 10/38/49
f 9/4/50 23/43/50 2/1/50
f 28/25/51 43/54/51 34/26/51
f 42/22/52 20/10/52 16/7/52
f 15/27/53 3/58/53 26/28/53
f 18/30/54 10/38/54 4/31/54
f 11/33/55 7/40/55 6/34/55
f 27/35/56 31/57/56 30/36/56
f 40/39/57 32/16/57 7/40/57
f 38/46/58 34/26/58 33/47/58
f 44/49/59 40/39/59 39/50/59
f 32/16/60 40/39/60 44/49/60
f 28/25/61 29/45/61 44/55/61
f 6/34/62 7/40/62 32/16/62
f 9/4/63 6/6/63 30/36/63
f 5/3/64 4/31/64 10/38/64
f 5/3/65 8/5/65 9/4/65
f 42/22/66 36/19/66 33/21/66
f 43/54/67 41/56/67 33/47/67
f 16/7/68 20/10/68 17/12/68
f 13/32/69 12/8/69 17/12/69
f 22/15/70 23/43/70 31/57/70
f 25/13/71 22/15/71 27/35/71
f 14/42/72 15/27/72 37/29/72
f 14/9/73 35/20/73 36/19/73
f 3/58/74 15/27/74 12/8/74
f 1/2/75 12/8/75 13/32/75
f 39/50/76 40/39/76 21/41/76
f 39/24/77 19/61/77 20/10/77
f 38/52/78 37/29/78 26/28/78
f 38/46/79 24/14/79 25/13/79
f 24/59/80 26/28/80 3/58/80
f 23/43/81 24/44/81 1/60/81
f 21/41/82 7/40/82 11/33/82
f 18/30/83 19/11/83 11/33/83
f 9/4/84 31/57/84 23/43/84
